<svg width="26" height="26" viewBox="0 0 26 26" fill="none" xmlns="http://www.w3.org/2000/svg">
<path d="M13 1.04001C6.40251 1.04001 1.04001 6.40251 1.04001 13C1.04001 19.5975 6.40251 24.96 13 24.96C19.5975 24.96 24.96 19.5975 24.96 13C24.96 6.40251 19.5975 1.04001 13 1.04001ZM13 2.08001C19.0349 2.08001 23.92 6.96516 23.92 13C23.92 13.0366 23.918 13.0731 23.918 13.1117C23.5849 13.0792 23.2009 13.0508 22.7114 13.0345C22.0208 13.0081 21.1494 13.0163 20.1622 13.065C20.1988 12.8091 20.2252 12.5511 20.2252 12.287C20.2759 11.312 19.9489 10.402 19.4167 9.59766C19.5447 9.15282 19.695 8.58813 19.7336 7.94829C19.7763 7.21704 19.7133 6.40657 19.1283 5.86016L18.978 5.72001H18.7728C17.3774 5.72001 16.4206 6.30501 15.8377 6.7661C14.9947 6.4411 14.0461 6.24001 13 6.24001C11.9478 6.24001 10.9911 6.44313 10.1136 6.77016C9.5286 6.30501 8.57391 5.72001 7.17641 5.72001H6.97329L6.82298 5.86016C6.25016 6.39032 6.19735 7.17641 6.23391 7.9036C6.26438 8.54345 6.40657 9.12641 6.53454 9.5936C5.9922 10.4122 5.66923 11.3466 5.66923 12.2728C5.66923 12.5369 5.6936 12.7969 5.73016 13.0528C4.7897 13.0102 3.95282 13 3.2886 13.0244C2.79907 13.0427 2.41516 13.0711 2.08204 13.1016C2.08204 13.067 2.08001 13.0345 2.08001 13C2.08001 6.96516 6.96516 2.08001 13 2.08001ZM7.48516 6.82704C8.53532 6.92657 9.32548 7.39579 9.68907 7.72079L9.93282 7.9361L10.2334 7.8122C11.0561 7.47501 11.9742 7.28001 13 7.28001C14.0258 7.28001 14.9439 7.47501 15.7036 7.80813L16.0083 7.9422L16.2561 7.72079C16.6217 7.39579 17.4139 6.92657 18.462 6.82704C18.6022 7.0586 18.7241 7.38766 18.6936 7.88532C18.6591 8.48251 18.5006 9.13048 18.3788 9.51641L18.3016 9.76626L18.4559 9.97954C18.9719 10.6803 19.2339 11.44 19.1892 12.2424L19.1872 12.2566V12.2708C19.1872 13.5688 18.72 14.6088 17.7247 15.3766C16.7314 16.1464 15.1592 16.64 12.9472 16.64C10.7372 16.64 9.16501 16.1464 8.1697 15.3766C7.17438 14.6088 6.7072 13.5688 6.7072 12.2708C6.7072 11.5111 6.98345 10.6722 7.49126 9.97954L7.6436 9.77235L7.57048 9.52454C7.45063 9.11626 7.30235 8.45204 7.27188 7.85282C7.24751 7.35516 7.36735 7.03829 7.48516 6.82704ZM4.61907 13.5302C4.98673 13.5363 5.40923 13.5566 5.8297 13.5769C5.87032 13.7394 5.91704 13.8978 5.97188 14.0542C4.25345 14.0908 2.96563 14.2634 2.17345 14.4117C2.13891 14.1517 2.11251 13.8897 2.09829 13.6236C2.68532 13.5688 3.51001 13.518 4.61907 13.5302ZM21.3789 13.5383C22.488 13.5261 23.3147 13.5769 23.8997 13.6317C23.8855 13.8938 23.8591 14.1517 23.8266 14.4077C23.0059 14.2574 21.6836 14.0847 19.9184 14.0563C19.9733 13.9039 20.02 13.7475 20.0586 13.5891C20.5258 13.5647 20.9788 13.5444 21.3789 13.5383ZM6.19329 14.5702C6.50407 15.1917 6.94891 15.7463 7.53391 16.2013C8.33423 16.8188 9.37626 17.2534 10.6478 17.485C10.4813 17.6556 10.3309 17.8425 10.1949 18.0416L10.1644 18.0131C10.1664 18.0091 9.90641 18.1411 9.51641 18.1756C9.12438 18.2102 8.64298 18.2 8.21641 18.2C7.5786 18.2 7.29829 17.8994 6.85141 17.3509C6.60157 17.0158 6.29891 16.7456 6.00641 16.5405C5.70376 16.3292 5.44782 16.1809 5.13095 16.1281L5.08829 16.12H5.0436C4.80188 16.12 4.56626 16.1383 4.34688 16.3881C4.2372 16.5141 4.16204 16.7456 4.21079 16.9427C4.25954 17.1377 4.38345 17.2595 4.49516 17.3327C5.2061 17.8059 5.33204 18.7444 5.77688 19.5792C6.19329 20.408 7.0911 20.8 8.00923 20.8H9.36001V23.2984C5.70376 22.0066 2.94532 18.8256 2.25266 14.9256C3.04891 14.7753 4.38141 14.5945 6.19532 14.5702H6.19329ZM19.6991 14.5742C21.5516 14.5905 22.9227 14.7692 23.7474 14.9216C23.0567 18.8256 20.2983 22.0066 16.64 23.2964V20.5908C16.64 19.7681 16.3699 18.8602 15.8986 18.1005C15.7564 17.8709 15.5878 17.6536 15.3989 17.4586C16.6034 17.2209 17.5927 16.7944 18.3625 16.1992C18.9475 15.7483 19.3903 15.1938 19.6991 14.5742ZM12.3236 17.7308H13.78C14.2025 17.7308 14.6534 18.068 15.015 18.6489C15.3766 19.2319 15.6 20.0119 15.6 20.5908V23.6072C14.7672 23.8103 13.8958 23.92 13 23.92C12.1042 23.92 11.2328 23.8103 10.4 23.6072V20.5908C10.4 20.0241 10.6438 19.2461 11.0277 18.6611C11.4136 18.0781 11.9011 17.7308 12.3236 17.7308ZM6.40048 18.3463C6.85141 18.8134 7.39579 19.24 8.21641 19.24C8.62063 19.24 9.12641 19.2542 9.60782 19.2116C9.60985 19.2116 9.61188 19.2116 9.61391 19.2095C9.54891 19.3924 9.5022 19.5752 9.4636 19.76H8.00923C7.36735 19.76 6.91438 19.5284 6.70516 19.112L6.7011 19.1039L6.69907 19.0978C6.61173 18.9394 6.50001 18.6225 6.40048 18.3463Z" fill="white"/>
</svg>
