<svg width="26" height="26" viewBox="0 0 26 26" fill="none" xmlns="http://www.w3.org/2000/svg">
<path d="M8.32 1.56C4.59265 1.56 1.56 4.59265 1.56 8.32V17.68C1.56 21.4073 4.59265 24.44 8.32 24.44H17.68C21.4073 24.44 24.44 21.4073 24.44 17.68V8.32C24.44 4.59265 21.4073 1.56 17.68 1.56H8.32ZM8.32 2.6H17.68C20.8447 2.6 23.4 5.15531 23.4 8.32V17.68C23.4 20.8447 20.8447 23.4 17.68 23.4H8.32C5.15531 23.4 2.6 20.8447 2.6 17.68V8.32C2.6 5.15531 5.15531 2.6 8.32 2.6ZM19.24 5.72C18.6652 5.72 18.2 6.18515 18.2 6.76C18.2 7.33484 18.6652 7.8 19.24 7.8C19.8148 7.8 20.28 7.33484 20.28 6.76C20.28 6.18515 19.8148 5.72 19.24 5.72ZM13 7.28C9.8475 7.28 7.28 9.8475 7.28 13C7.28 16.1525 9.8475 18.72 13 18.72C16.1525 18.72 18.72 16.1525 18.72 13C18.72 9.8475 16.1525 7.28 13 7.28ZM13 8.32C15.5898 8.32 17.68 10.4102 17.68 13C17.68 15.5898 15.5898 17.68 13 17.68C10.4102 17.68 8.32 15.5898 8.32 13C8.32 10.4102 10.4102 8.32 13 8.32Z" fill="white"/>
</svg>
