<svg width="26" height="26" viewBox="0 0 26 26" fill="none" xmlns="http://www.w3.org/2000/svg">
<path d="M23.077 3.11391C22.8231 3.12407 22.5753 3.19516 22.3539 3.28454C22.1345 3.37188 20.867 3.91219 18.9962 4.71251C17.1254 5.51282 14.694 6.55485 12.2829 7.58673C7.46075 9.65251 2.72388 11.6838 2.72388 11.6838L2.75841 11.6716C2.75841 11.6716 2.472 11.767 2.18153 11.9681C2.03731 12.0697 1.88091 12.1997 1.75294 12.3906C1.627 12.5816 1.53356 12.8497 1.56809 13.1341C1.692 14.1355 2.72794 14.4199 2.72794 14.4199L2.73403 14.4219L7.36325 16.0063C7.48106 16.4003 8.76684 20.6924 9.04919 21.6024C9.20559 22.1041 9.35184 22.3945 9.50419 22.5916C9.58138 22.6911 9.66059 22.7663 9.74997 22.8231C9.7845 22.8455 9.82106 22.8617 9.85763 22.878C9.85763 22.878 9.85966 22.8759 9.85966 22.878C9.86372 22.878 9.86778 22.88 9.87388 22.882L9.86169 22.878C9.86981 22.882 9.87794 22.8881 9.88606 22.8902C9.90231 22.8963 9.91247 22.8963 9.93481 22.9003C10.465 23.0852 10.9037 22.7419 10.9037 22.7419L10.922 22.7277L13.7657 20.0911L18.3808 23.6884L18.4376 23.7149C19.2461 24.0744 19.9753 23.8733 20.3815 23.5442C20.7857 23.2152 20.9442 22.7906 20.9442 22.7906L20.9625 22.7459L24.3526 5.07204C24.44 4.67594 24.4522 4.33469 24.3709 4.02594C24.2876 3.71516 24.0886 3.44704 23.8407 3.29876C23.5909 3.15048 23.3289 3.10173 23.077 3.11391ZM23.1034 4.17016C23.207 4.1661 23.2822 4.17626 23.3065 4.19048C23.3309 4.20673 23.3411 4.20469 23.3654 4.29204C23.3878 4.37735 23.4 4.56219 23.337 4.8486L23.335 4.85469L19.9631 22.427C19.955 22.4453 19.8839 22.6078 19.7254 22.7378C19.5609 22.8719 19.3781 22.9755 18.8967 22.7724L13.849 18.8358L13.7068 18.7241L13.7048 18.7281L12.1956 17.5947L20.6761 7.6172C20.8101 7.46079 20.8386 7.24141 20.7492 7.05657C20.6618 6.86969 20.4729 6.75391 20.2678 6.76001C20.1682 6.76204 20.0728 6.79251 19.9915 6.84735L7.71872 15.0292L3.08341 13.4408C3.08341 13.4408 2.62231 13.1849 2.59997 13.0061C2.59794 12.998 2.59388 13.0061 2.61825 12.9695C2.64059 12.935 2.70153 12.8741 2.77669 12.8213C2.927 12.7177 3.09966 12.6527 3.09966 12.6527L3.11794 12.6466L3.13419 12.6405C3.13419 12.6405 7.87309 10.6072 12.6932 8.54141C15.1043 7.50954 17.5358 6.46954 19.4065 5.66923C21.2753 4.86891 22.6261 4.29407 22.7418 4.24735C22.8718 4.19657 22.9998 4.17423 23.1034 4.17016ZM17.4789 9.77235L11.0479 17.3388L11.0439 17.3428C11.0337 17.355 11.0236 17.3672 11.0154 17.3794C11.0053 17.3936 10.9951 17.4099 10.987 17.4241C10.9504 17.485 10.9281 17.5541 10.92 17.6231C10.9179 17.6252 10.9179 17.6272 10.92 17.6272L10.0811 21.3952C10.0668 21.3545 10.0567 21.3403 10.0425 21.2916C9.77637 20.4364 8.56372 16.3881 8.39513 15.8295L17.4789 9.77235ZM11.7731 18.5799L12.9289 19.4472L11.2308 21.0214L11.7731 18.5799Z" fill="white"/>
</svg>
